<svg xmlns="http://www.w3.org/2000/svg" width="291" height="80" viewBox="0 0 291 80" fill="none"><g clip-path="url(#clip0)"><path fill-rule="evenodd" clip-rule="evenodd" d="M31.9836 2.32688L59.6647 12.9901C60.1798 13.1876 60.6213 13.5296 60.9323 13.9716C61.2432 14.4136 61.4092 14.9354 61.4086 15.4693V40.3679C61.4086 51.271 56.0662 57.9089 50.3362 63.4537C49.3308 64.4226 48.2479 65.314 47.0975 66.1195L32.6203 76.2762C32.1462 76.6098 31.5743 76.7896 30.9871 76.7896C30.4 76.7896 29.828 76.6098 29.3539 76.2762L14.8491 66.1195C13.6894 65.3147 12.5972 64.4234 11.5827 63.4537C5.82502 57.9355 0.510255 51.2977 0.510255 40.3945V15.4693C0.50972 14.9354 0.675665 14.4136 0.986595 13.9716C1.29753 13.5296 1.73912 13.1876 2.25416 12.9901L29.9352 2.32688C30.5929 2.07463 31.326 2.07463 31.9836 2.32688ZM31.876 6.04039L56.6433 15.6373C57.1041 15.8151 57.4992 16.1229 57.7774 16.5207C58.0556 16.9185 58.2041 17.3881 58.2036 17.8686V40.2775C58.2036 50.0903 53.4235 56.0644 48.2967 61.0548C47.3971 61.9269 46.4282 62.7291 45.3989 63.4541L32.4456 72.5952C32.0215 72.8954 31.5097 73.0572 30.9844 73.0572C30.459 73.0572 29.9473 72.8954 29.5231 72.5952L16.545 63.4541C15.5074 62.7298 14.5302 61.9276 13.6225 61.0548C8.4709 56.0884 3.71558 50.1143 3.71558 40.3015V17.8686C3.7151 17.3881 3.86358 16.9185 4.14178 16.5207C4.41998 16.1229 4.81508 15.8151 5.27592 15.6373L30.0432 6.04039C30.6317 5.81336 31.2875 5.81336 31.876 6.04039Z" fill="white"/><path d="M32.1817 37.9335C33.6191 38.8668 35.5417 39.9868 37.9497 41.2935C40.3577 42.6002 43.2791 44.1215 46.7137 45.8575L44.7817 46.5015C43.7364 45.9788 42.7377 45.4748 41.7857 44.9895C40.8337 44.5042 39.9284 44.0282 39.0697 43.5615C36.9791 42.4975 35.2151 41.5548 33.7777 40.7335C32.3591 39.9122 31.2297 39.2028 30.3897 38.6055C29.2697 39.2028 28.0657 39.7348 26.7777 40.2015C25.5084 40.6495 24.1457 41.0228 22.6897 41.3215C21.5697 42.6095 20.6084 43.7015 19.8057 44.5975C19.0031 45.4748 18.3404 46.1562 17.8177 46.6415C16.5484 47.8735 14.8031 49.3202 12.5817 50.9815C12.5257 50.9068 12.4977 50.7855 12.4977 50.6175C12.4977 50.5055 12.8337 50.1788 13.5057 49.6375C14.0471 49.2268 14.5697 48.8068 15.0737 48.3775C15.5777 47.9668 16.0724 47.5375 16.5577 47.0895C17.3977 46.3242 18.2377 45.4842 19.0777 44.5695C19.9364 43.6362 20.8324 42.6188 21.7657 41.5175C20.7577 41.6668 19.8897 41.7788 19.1617 41.8535C18.4337 41.9095 17.8271 41.9375 17.3417 41.9375C16.3337 41.9375 15.4471 41.8348 14.6817 41.6295C13.9351 41.4242 13.2911 41.0882 12.7497 40.6215C11.8911 39.9122 11.4524 38.9788 11.4337 37.8215C11.4337 36.5522 12.1897 35.4695 13.7017 34.5735C15.2324 33.6962 17.1084 33.2575 19.3297 33.2575C19.8151 33.2575 20.3191 33.2948 20.8417 33.3695C21.3644 33.4255 21.9057 33.5282 22.4657 33.6775C23.2124 33.8455 24.6124 34.2655 26.6657 34.9375L34.2817 25.6135L34.5897 26.2575C33.7684 27.2655 32.7697 28.5162 31.5937 30.0095C30.4177 31.5028 29.0177 33.2575 27.3937 35.2735C27.7671 35.4788 28.2617 35.7588 28.8777 36.1135C29.5124 36.4495 30.2871 36.8788 31.2017 37.4015C32.4524 36.7482 33.7871 35.9642 35.2057 35.0495C36.6431 34.1348 38.1924 33.0708 39.8537 31.8575C41.3097 30.7935 42.6631 29.7575 43.9137 28.7495C45.1644 27.7228 46.3404 26.7055 47.4417 25.6975C47.5911 25.5482 47.8617 25.2868 48.2537 24.9135C48.6457 24.5215 49.1591 23.9895 49.7937 23.3175C50.4657 22.6828 50.9324 22.3375 51.1937 22.2815C51.3617 22.2815 51.5764 22.3562 51.8377 22.5055C52.0244 22.6362 52.1271 22.7668 52.1457 22.8975C52.1457 23.7188 50.1111 25.7348 46.0417 28.9455C41.6177 32.3615 36.9977 35.3575 32.1817 37.9335ZM26.4977 36.3935C26.1057 36.8975 25.6671 37.4668 25.1817 38.1015C24.6964 38.7175 24.1551 39.3895 23.5577 40.1175C24.7151 39.9495 26.7404 39.3055 29.6337 38.1855L26.4977 36.3935ZM25.8257 36.1975C22.8577 34.8535 20.1417 34.1815 17.6777 34.1815C16.2404 34.1815 14.9804 34.5082 13.8977 35.1615C12.8711 35.7962 12.3577 36.5802 12.3577 37.5135C12.3577 38.3908 12.8711 39.1562 13.8977 39.8095C14.9244 40.4255 16.2217 40.7335 17.7897 40.7335C18.0324 40.7335 18.5457 40.7055 19.3297 40.6495C20.1137 40.5935 21.1964 40.5002 22.5777 40.3695L25.8257 36.1975Z" fill="#CF9455"/><path d="M32.1817 37.9335L31.7101 37.0517L30.2173 37.8502L31.6371 38.7722L32.1817 37.9335ZM37.9497 41.2935L37.4728 42.1724L37.4728 42.1724L37.9497 41.2935ZM46.7137 45.8575L47.03 46.8062L49.3063 46.0474L47.1648 44.965L46.7137 45.8575ZM44.7817 46.5015L44.3345 47.3959L44.705 47.5812L45.098 47.4502L44.7817 46.5015ZM41.7857 44.9895L41.3315 45.8804L41.3315 45.8804L41.7857 44.9895ZM39.0697 43.5615L39.5472 42.6829L39.5354 42.6764L39.5233 42.6703L39.0697 43.5615ZM33.7777 40.7335L33.2767 41.5989L33.2816 41.6017L33.7777 40.7335ZM30.3897 38.6055L30.9693 37.7905L30.4651 37.432L29.9191 37.7231L30.3897 38.6055ZM26.7777 40.2015L27.1106 41.1445L27.1184 41.1417L26.7777 40.2015ZM22.6897 41.3215L22.4888 40.3419L22.1572 40.4099L21.9351 40.6653L22.6897 41.3215ZM19.8057 44.5975L20.5436 45.2726L20.5506 45.2648L19.8057 44.5975ZM17.8177 46.6415L17.1373 45.9087L17.1292 45.9162L17.1213 45.9239L17.8177 46.6415ZM12.5817 50.9815L11.7817 51.5815L12.3809 52.3804L13.1807 51.7823L12.5817 50.9815ZM13.5057 49.6375L12.9013 48.8408L12.8897 48.8496L12.8784 48.8587L13.5057 49.6375ZM15.0737 48.3775L14.4421 47.6023L14.4336 47.6092L14.4253 47.6163L15.0737 48.3775ZM16.5577 47.0895L15.8842 46.3503L15.8795 46.3547L16.5577 47.0895ZM19.0777 44.5695L18.3418 43.8924L18.3412 43.8931L19.0777 44.5695ZM21.7657 41.5175L22.5286 42.164L24.2444 40.1394L21.6192 40.5283L21.7657 41.5175ZM19.1617 41.8535L19.2384 42.8506L19.2511 42.8496L19.2638 42.8483L19.1617 41.8535ZM14.6817 41.6295L14.4166 42.5937L14.4226 42.5953L14.6817 41.6295ZM12.7497 40.6215L13.4027 39.8641L13.3947 39.8572L13.3866 39.8505L12.7497 40.6215ZM11.4337 37.8215H10.4337V37.8296L10.4339 37.8376L11.4337 37.8215ZM13.7017 34.5735L13.2045 33.7059L13.1982 33.7095L13.1919 33.7132L13.7017 34.5735ZM20.8417 33.3695L20.7003 34.3595L20.7177 34.3619L20.7352 34.3638L20.8417 33.3695ZM22.4657 33.6775L22.2081 34.6437L22.2271 34.6488L22.2462 34.6531L22.4657 33.6775ZM26.6657 34.9375L26.3547 35.8879L27.0064 36.1012L27.4402 35.5701L26.6657 34.9375ZM34.2817 25.6135L35.1839 25.182L34.504 23.7606L33.5073 24.9809L34.2817 25.6135ZM34.5897 26.2575L35.365 26.8892L35.7653 26.3978L35.4919 25.826L34.5897 26.2575ZM31.5937 30.0095L30.8081 29.3908L31.5937 30.0095ZM27.3937 35.2735L26.615 34.6462L25.8668 35.575L26.9118 36.1497L27.3937 35.2735ZM28.8777 36.1135L28.3788 36.9801L28.3942 36.989L28.4098 36.9973L28.8777 36.1135ZM31.2017 37.4015L30.7056 38.2697L31.1802 38.541L31.6648 38.2879L31.2017 37.4015ZM35.2057 35.0495L34.6689 34.2058L34.6639 34.209L35.2057 35.0495ZM39.8537 31.8575L40.4435 32.6651L40.4438 32.6649L39.8537 31.8575ZM43.9137 28.7495L44.5413 29.5281L44.5482 29.5224L43.9137 28.7495ZM47.4417 25.6975L48.1169 26.4352L48.1332 26.4202L48.1488 26.4046L47.4417 25.6975ZM48.2537 24.9135L48.9434 25.6376L48.9522 25.6292L48.9608 25.6206L48.2537 24.9135ZM49.7937 23.3175L49.1071 22.5905L49.0863 22.6101L49.0667 22.6309L49.7937 23.3175ZM51.1937 22.2815V21.2815H51.0878L50.9842 21.3037L51.1937 22.2815ZM51.8377 22.5055L52.4112 21.6863L52.3737 21.66L52.3339 21.6373L51.8377 22.5055ZM52.1457 22.8975H53.1457V22.8264L53.1357 22.7561L52.1457 22.8975ZM46.0417 28.9455L46.6529 29.7371L46.6611 29.7306L46.0417 28.9455ZM26.4977 36.3935L26.9939 35.5253L26.2408 35.095L25.7084 35.7796L26.4977 36.3935ZM25.1817 38.1015L25.9672 38.7204L25.9717 38.7147L25.9761 38.709L25.1817 38.1015ZM23.5577 40.1175L22.7847 39.4832L21.1481 41.4778L23.7014 41.1071L23.5577 40.1175ZM29.6337 38.1855L29.9947 39.1181L31.954 38.3596L30.1299 37.3173L29.6337 38.1855ZM25.8257 36.1975L26.6148 36.8118L27.3946 35.8102L26.2382 35.2865L25.8257 36.1975ZM13.8977 35.1615L13.381 34.3053L13.3719 34.3109L13.8977 35.1615ZM13.8977 39.8095L13.3609 40.6532L13.372 40.6602L13.3832 40.667L13.8977 39.8095ZM22.5777 40.3695L22.6719 41.3651L23.1016 41.3244L23.3668 40.9838L22.5777 40.3695ZM31.6371 38.7722C33.1055 39.7257 35.0536 40.8597 37.4728 42.1724L38.4267 40.4146C36.0299 39.114 34.1327 38.008 32.7263 37.0948L31.6371 38.7722ZM37.4728 42.1724C39.892 43.4852 42.8225 45.0112 46.2626 46.75L47.1648 44.965C43.7357 43.2318 40.8235 41.7152 38.4267 40.4146L37.4728 42.1724ZM46.3975 44.9088L44.4655 45.5528L45.098 47.4502L47.03 46.8062L46.3975 44.9088ZM45.2289 45.6071C44.1857 45.0855 43.1894 44.5826 42.2399 44.0986L41.3315 45.8804C42.2861 46.367 43.2871 46.8722 44.3345 47.3959L45.2289 45.6071ZM42.2399 44.0986C41.295 43.6169 40.3975 43.145 39.5472 42.6829L38.5922 44.4401C39.4593 44.9114 40.3724 45.3914 41.3315 45.8804L42.2399 44.0986ZM39.5233 42.6703C37.4416 41.6109 35.6928 40.6761 34.2739 39.8653L33.2816 41.6017C34.7374 42.4336 36.5165 43.3842 38.6162 44.4527L39.5233 42.6703ZM34.2788 39.8681C32.8733 39.0544 31.7736 38.3625 30.9693 37.7905L29.8102 39.4205C30.6858 40.0431 31.8448 40.7699 33.2767 41.5989L34.2788 39.8681ZM29.9191 37.7231C28.8442 38.2965 27.6839 38.8096 26.4371 39.2613L27.1184 41.1417C28.4475 40.6601 29.6953 40.1092 30.8603 39.4879L29.9191 37.7231ZM26.4449 39.2585C25.2228 39.6898 23.9046 40.0515 22.4888 40.3419L22.8907 42.3011C24.3869 41.9942 25.794 41.6092 27.1106 41.1445L26.4449 39.2585ZM21.9351 40.6653C20.8171 41.951 19.8592 43.0391 19.0609 43.9303L20.5506 45.2648C21.3576 44.3639 22.3223 43.268 23.4443 41.9777L21.9351 40.6653ZM19.0679 43.9225C18.2733 44.7911 17.6313 45.4499 17.1373 45.9087L18.4982 47.3743C19.0495 46.8624 19.7329 46.1586 20.5435 45.2725L19.0679 43.9225ZM17.1213 45.9239C15.8947 47.1144 14.1868 48.5324 11.9828 50.1807L13.1807 51.7823C15.4194 50.108 17.2021 48.6326 18.5142 47.3591L17.1213 45.9239ZM13.3817 50.3815C13.4603 50.4863 13.4857 50.5775 13.4931 50.6096C13.5009 50.6432 13.4977 50.6502 13.4977 50.6175H11.4977C11.4977 50.8496 11.5274 51.2423 11.7817 51.5815L13.3817 50.3815ZM13.4977 50.6175C13.4977 50.8316 13.4248 50.9794 13.4054 51.0177C13.3782 51.0713 13.3548 51.1011 13.3546 51.1013C13.3537 51.1025 13.3773 51.0731 13.4468 51.0055C13.5813 50.8748 13.8048 50.6807 14.1331 50.4163L12.8784 48.8587C12.5347 49.1356 12.2542 49.3756 12.0527 49.5715C11.9542 49.6672 11.8518 49.7743 11.7669 49.8852C11.7247 49.9403 11.6698 50.0181 11.6216 50.1132C11.5812 50.1929 11.4977 50.3754 11.4977 50.6175H13.4977ZM14.1101 50.4342C14.6661 50.0124 15.2035 49.5806 15.7222 49.1387L14.4253 47.6163C13.936 48.033 13.428 48.4412 12.9013 48.8408L14.1101 50.4342ZM15.7054 49.1527C16.2256 48.7289 16.7358 48.286 17.236 47.8243L15.8795 46.3547C15.409 46.789 14.9299 47.2048 14.4421 47.6023L15.7054 49.1527ZM17.2312 47.8287C18.0951 47.0416 18.956 46.1804 19.8143 45.2459L18.3412 43.8931C17.5195 44.7879 16.7004 45.6067 15.8842 46.3503L17.2312 47.8287ZM19.8137 45.2466C20.6827 44.302 21.5877 43.2743 22.5286 42.164L21.0028 40.871C20.0771 41.9633 19.1901 42.9704 18.3418 43.8924L19.8137 45.2466ZM21.6192 40.5283C20.6207 40.6762 19.7683 40.786 19.0597 40.8587L19.2638 42.8483C20.0111 42.7716 20.8947 42.6575 21.9123 42.5067L21.6192 40.5283ZM19.085 40.8564C18.3712 40.9114 17.7922 40.9375 17.3417 40.9375V42.9375C17.8619 42.9375 18.4962 42.9076 19.2384 42.8506L19.085 40.8564ZM17.3417 40.9375C16.3987 40.9375 15.6024 40.8411 14.9409 40.6637L14.4226 42.5953C15.2917 42.8285 16.2687 42.9375 17.3417 42.9375V40.9375ZM14.9469 40.6653C14.3311 40.496 13.8225 40.226 13.4027 39.8641L12.0968 41.3789C12.7596 41.9503 13.539 42.3524 14.4166 42.5937L14.9469 40.6653ZM13.3866 39.8505C12.7635 39.3358 12.4478 38.6833 12.4336 37.8054L10.4339 37.8376C10.457 39.2744 11.0186 40.4885 12.1129 41.3925L13.3866 39.8505ZM12.4337 37.8215C12.4337 37.0345 12.8729 36.2271 14.2115 35.4338L13.1919 33.7132C11.5066 34.7119 10.4337 36.0698 10.4337 37.8215H12.4337ZM14.199 35.4411C15.5439 34.6703 17.2383 34.2575 19.3297 34.2575V32.2575C16.9785 32.2575 14.9209 32.7221 13.2045 33.7059L14.199 35.4411ZM19.3297 34.2575C19.7638 34.2575 20.2204 34.2909 20.7003 34.3595L20.9832 32.3796C20.4177 32.2988 19.8663 32.2575 19.3297 32.2575V34.2575ZM20.7352 34.3638C21.202 34.4138 21.6927 34.5063 22.2081 34.6437L22.7234 32.7113C22.1188 32.55 21.5268 32.4372 20.9483 32.3752L20.7352 34.3638ZM22.2462 34.6531C22.9395 34.8091 24.2959 35.2141 26.3547 35.8879L26.9768 33.9871C24.9289 33.3169 23.4853 32.8819 22.6852 32.7019L22.2462 34.6531ZM27.4402 35.5701L35.0562 26.2461L33.5073 24.9809L25.8913 34.3049L27.4402 35.5701ZM33.3796 26.045L33.6876 26.689L35.4919 25.826L35.1839 25.182L33.3796 26.045ZM33.8145 25.6258C32.9885 26.6396 31.9861 27.8949 30.8081 29.3908L32.3794 30.6282C33.5533 29.1374 34.5483 27.8914 35.365 26.8892L33.8145 25.6258ZM30.8081 29.3908C29.635 30.8804 28.2374 32.6321 26.615 34.6462L28.1725 35.9008C29.798 33.8829 31.2004 32.1252 32.3794 30.6282L30.8081 29.3908ZM26.9118 36.1497C27.2769 36.3505 27.7652 36.6269 28.3788 36.9801L29.3767 35.2469C28.7582 34.8908 28.2572 34.6071 27.8757 34.3973L26.9118 36.1497ZM28.4098 36.9973C29.0318 37.3265 29.7964 37.7502 30.7056 38.2697L31.6979 36.5333C30.7777 36.0075 29.993 35.5725 29.3456 35.2297L28.4098 36.9973ZM31.6648 38.2879C32.947 37.618 34.3082 36.818 35.7476 35.89L34.6639 34.209C33.266 35.1103 31.9578 35.8783 30.7387 36.5152L31.6648 38.2879ZM35.7426 35.8932C37.2012 34.965 38.7683 33.8885 40.4435 32.6651L39.2639 31.0499C37.6165 32.2532 36.0849 33.3047 34.6689 34.2058L35.7426 35.8932ZM40.4438 32.6649C41.911 31.5927 43.2769 30.5471 44.5413 29.5281L43.2862 27.9709C42.0492 28.9679 40.7085 29.9943 39.2637 31.0501L40.4438 32.6649ZM44.5482 29.5224C45.8116 28.4853 47.0013 27.4562 48.1169 26.4352L46.7666 24.9598C45.6795 25.9548 44.5172 26.9604 43.2792 27.9766L44.5482 29.5224ZM48.1488 26.4046C48.2885 26.265 48.551 26.0114 48.9434 25.6376L47.5641 24.1894C47.1725 24.5623 46.8936 24.8314 46.7346 24.9904L48.1488 26.4046ZM48.9608 25.6206C49.3625 25.2189 49.8832 24.6792 50.5207 24.0041L49.0667 22.6309C48.4349 23.2999 47.9289 23.8241 47.5466 24.2064L48.9608 25.6206ZM50.4804 24.0445C50.8021 23.7406 51.0544 23.5256 51.2426 23.3863C51.3364 23.3169 51.4018 23.2757 51.442 23.2535C51.4893 23.2274 51.4711 23.2448 51.4033 23.2593L50.9842 21.3037C50.6275 21.3801 50.2973 21.5978 50.0529 21.7787C49.7744 21.9847 49.4573 22.2597 49.1071 22.5905L50.4804 24.0445ZM51.1937 23.2815C51.1342 23.2815 51.1157 23.2693 51.1522 23.282C51.1863 23.2938 51.2483 23.3204 51.3416 23.3737L52.3339 21.6373C52.0241 21.4603 51.6247 21.2815 51.1937 21.2815V23.2815ZM51.2643 23.3247C51.3047 23.3531 51.2956 23.3539 51.2684 23.3193C51.2389 23.2818 51.177 23.1871 51.1558 23.0389L53.1357 22.7561C53.0574 22.2085 52.6697 21.8672 52.4112 21.6863L51.2643 23.3247ZM51.1457 22.8975C51.1457 22.7616 51.1948 22.8156 50.9516 23.1547C50.7439 23.4444 50.4065 23.829 49.9159 24.3151C48.9385 25.2836 47.447 26.563 45.4223 28.1604L46.6611 29.7306C48.7058 28.1173 50.2663 26.7834 51.3236 25.7359C51.8503 25.214 52.2759 24.7399 52.5769 24.3203C52.8423 23.9501 53.1457 23.4441 53.1457 22.8975H51.1457ZM45.4306 28.154C41.0495 31.5369 36.476 34.5025 31.7101 37.0517L32.6534 38.8153C37.5194 36.2125 42.186 33.1861 46.6529 29.737L45.4306 28.154ZM25.7084 35.7796C25.3144 36.2862 24.874 36.8577 24.3874 37.4941L25.9761 38.709C26.4602 38.0759 26.8971 37.5088 27.2871 37.0074L25.7084 35.7796ZM24.3962 37.4826C23.9157 38.0925 23.3786 38.7593 22.7847 39.4832L24.3308 40.7518C24.9315 40.0197 25.4771 39.3425 25.9672 38.7204L24.3962 37.4826ZM23.7014 41.1071C24.9856 40.9207 27.1097 40.2348 29.9947 39.1181L29.2727 37.2529C26.3711 38.3762 24.4445 38.9783 23.4141 39.1279L23.7014 41.1071ZM30.1299 37.3173L26.9939 35.5253L26.0016 37.2617L29.1376 39.0537L30.1299 37.3173ZM26.2382 35.2865C23.1804 33.9019 20.322 33.1815 17.6777 33.1815V35.1815C19.9615 35.1815 22.535 35.8051 25.4132 37.1085L26.2382 35.2865ZM17.6777 33.1815C16.0837 33.1815 14.6401 33.5456 13.3811 34.3053L14.4144 36.0177C15.3207 35.4708 16.3971 35.1815 17.6777 35.1815V33.1815ZM13.3719 34.3109C12.1487 35.0671 11.3577 36.132 11.3577 37.5135H13.3577C13.3577 37.0283 13.5934 36.5253 14.4236 36.0121L13.3719 34.3109ZM11.3577 37.5135C11.3577 38.8567 12.1687 39.8945 13.3609 40.6532L14.4346 38.9658C13.5734 38.4178 13.3577 37.925 13.3577 37.5135H11.3577ZM13.3832 40.667C14.6064 41.4009 16.0953 41.7335 17.7897 41.7335V39.7335C16.3482 39.7335 15.2424 39.4501 14.4122 38.952L13.3832 40.667ZM17.7897 41.7335C18.0747 41.7335 18.625 41.7024 19.401 41.647L19.2585 39.652C18.4665 39.7086 17.9901 39.7335 17.7897 39.7335V41.7335ZM19.401 41.647C20.1963 41.5902 21.2878 41.496 22.6719 41.3651L22.4836 39.3739C21.1051 39.5043 20.0312 39.5969 19.2585 39.652L19.401 41.647ZM23.3668 40.9838L26.6148 36.8118L25.0367 35.5832L21.7887 39.7552L23.3668 40.9838Z" fill="#CF9455"/><path d="M96.1533 30.5323H86.0264L83.752 36.8409H80.4648L89.6953 12.6691H92.4844L101.731 36.8409H98.4609L96.1533 30.5323ZM86.9893 27.9093H95.207L91.0898 16.6036L86.9893 27.9093ZM104.354 34.3341L105.417 33.0226C106.612 31.4731 107.293 29.1489 107.459 26.0499L107.741 18.8781H119.312V34.3341H121.62V42.1202H118.549V36.8409H106.015V42.1202H102.943L102.96 34.3341H104.354ZM107.99 34.3341H116.241V21.7169H110.713L110.53 26.0001C110.342 29.575 109.495 32.353 107.99 34.3341ZM125.306 36.8409V18.8781H132.312C134.702 18.8781 136.534 19.2986 137.807 20.1398C139.09 20.9698 139.732 22.1928 139.732 23.8087C139.732 24.6388 139.483 25.3914 138.985 26.0665C138.487 26.7306 137.751 27.2397 136.777 27.5939C137.862 27.8484 138.731 28.3465 139.384 29.088C140.048 29.8295 140.38 30.715 140.38 31.7443C140.38 33.3934 139.771 34.6551 138.554 35.5294C137.347 36.4038 135.637 36.8409 133.424 36.8409H125.306ZM128.377 28.9552V34.3673H133.457C134.741 34.3673 135.698 34.1294 136.329 33.6534C136.971 33.1775 137.292 32.5079 137.292 31.6447C137.292 29.8517 135.975 28.9552 133.341 28.9552H128.377ZM128.377 26.4982H132.345C135.222 26.4982 136.661 25.657 136.661 23.9747C136.661 22.2924 135.3 21.4236 132.577 21.3683H128.377V26.4982ZM143.634 27.6935C143.634 25.9337 143.977 24.351 144.663 22.9454C145.36 21.5398 146.323 20.4552 147.552 19.6915C148.791 18.9279 150.202 18.546 151.785 18.546C154.231 18.546 156.207 19.3927 157.712 21.0861C159.228 22.7794 159.986 25.0317 159.986 27.8429V28.0587C159.986 29.8074 159.649 31.379 158.974 32.7736C158.31 34.157 157.352 35.2361 156.102 36.0109C154.862 36.7856 153.434 37.173 151.818 37.173C149.383 37.173 147.408 36.3263 145.892 34.6329C144.386 32.9396 143.634 30.6984 143.634 27.9093V27.6935ZM146.722 28.0587C146.722 30.0509 147.181 31.6502 148.1 32.8566C149.029 34.0629 150.269 34.6661 151.818 34.6661C153.379 34.6661 154.618 34.0574 155.537 32.84C156.456 31.6115 156.915 29.896 156.915 27.6935C156.915 25.7234 156.445 24.1297 155.504 22.9122C154.574 21.6837 153.335 21.0695 151.785 21.0695C150.269 21.0695 149.046 21.6726 148.116 22.879C147.187 24.0854 146.722 25.812 146.722 28.0587ZM169.433 29.1876H167.191V36.8409H164.104V18.8781H167.191V26.4816H169.2L175.243 18.8781H178.962L171.856 27.5109L179.56 36.8409H175.658L169.433 29.1876ZM193.289 36.8409C193.112 36.4868 192.968 35.8559 192.857 34.9484C191.43 36.4314 189.725 37.173 187.744 37.173C185.973 37.173 184.518 36.6749 183.378 35.6788C182.249 34.6717 181.685 33.3989 181.685 31.8605C181.685 29.99 182.393 28.5402 183.81 27.5109C185.237 26.4705 187.241 25.9503 189.819 25.9503H192.808V24.5392C192.808 23.4656 192.487 22.6134 191.845 21.9825C191.203 21.3406 190.257 21.0197 189.006 21.0197C187.91 21.0197 186.992 21.2963 186.25 21.8497C185.508 22.4031 185.138 23.0727 185.138 23.8585H182.05C182.05 22.962 182.365 22.0988 182.996 21.2687C183.638 20.4275 184.501 19.7635 185.586 19.2765C186.682 18.7895 187.882 18.546 189.188 18.546C191.258 18.546 192.88 19.0662 194.053 20.1066C195.226 21.1359 195.835 22.5581 195.879 24.3732V32.6407C195.879 34.2898 196.089 35.6014 196.51 36.5753V36.8409H193.289ZM188.192 34.5001C189.155 34.5001 190.068 34.2511 190.932 33.7531C191.795 33.255 192.42 32.6075 192.808 31.8107V28.1251H190.4C186.637 28.1251 184.756 29.2264 184.756 31.4288C184.756 32.3917 185.077 33.1443 185.719 33.6866C186.361 34.229 187.185 34.5001 188.192 34.5001ZM213.775 21.3683H207.749V36.8409H204.678V21.3683H198.768V18.8781H213.775V21.3683Z" fill="white"/><path d="M95.793 60.6117C95.5645 62.5668 94.8408 64.0775 93.6221 65.1439C92.4118 66.2019 90.7995 66.7308 88.7852 66.7308C86.6016 66.7308 84.8496 65.948 83.5293 64.3822C82.2174 62.8164 81.5615 60.7217 81.5615 58.098V56.3334C81.5615 54.6322 81.862 53.1299 82.4629 51.8265C83.0723 50.5147 83.9398 49.5075 85.0654 48.8051C86.1995 48.0941 87.5114 47.7386 89.001 47.7386C90.9645 47.7386 92.5387 48.2888 93.7236 49.389C94.9085 50.4808 95.5983 51.9958 95.793 53.934H93.3555C93.1439 52.4782 92.6826 51.4161 91.9717 50.7474C91.2692 50.0788 90.279 49.7445 89.001 49.7445C87.4352 49.7445 86.2165 50.32 85.3447 51.4711C84.473 52.6136 84.0286 54.1752 84.0117 56.1556H91.248V58.1488H84.0117V58.1742C84.0117 60.1801 84.4307 61.7754 85.2686 62.9603C86.1064 64.1452 87.2786 64.7377 88.7852 64.7377C90.1393 64.7377 91.1761 64.433 91.8955 63.8236C92.6234 63.2058 93.1058 62.1351 93.3428 60.6117H95.793ZM99.5127 66.4769V52.7406H104.87C106.698 52.7406 108.099 53.0622 109.072 53.7054C110.054 54.3402 110.545 55.2754 110.545 56.5111C110.545 57.1459 110.354 57.7214 109.974 58.2377C109.593 58.7455 109.03 59.1348 108.285 59.4056C109.115 59.6003 109.779 59.9812 110.278 60.5482C110.786 61.1153 111.04 61.7924 111.04 62.5795C111.04 63.8405 110.575 64.8054 109.644 65.474C108.721 66.1426 107.413 66.4769 105.721 66.4769H99.5127ZM101.861 60.4467V64.5853H105.746C106.728 64.5853 107.46 64.4034 107.942 64.0394C108.433 63.6755 108.679 63.1635 108.679 62.5033C108.679 61.1322 107.672 60.4467 105.657 60.4467H101.861ZM101.861 58.5677H104.896C107.096 58.5677 108.196 57.9245 108.196 56.6381C108.196 55.3516 107.155 54.6872 105.073 54.6449H101.861V58.5677ZM123.024 54.683H116.689V66.4769H114.328V52.7406H123.024V54.683ZM130.515 66.7308C128.653 66.7308 127.138 66.1215 125.97 64.9027C124.802 63.6755 124.218 62.0378 124.218 59.9896V59.558C124.218 58.1954 124.476 56.9808 124.992 55.9144C125.517 54.8396 126.245 54.0017 127.176 53.4008C128.115 52.7914 129.131 52.4867 130.223 52.4867C132.008 52.4867 133.396 53.0749 134.387 54.2513C135.377 55.4278 135.872 57.112 135.872 59.3041V60.2816H126.566C126.6 61.6358 126.994 62.7318 127.747 63.5697C128.509 64.3991 129.474 64.8138 130.642 64.8138C131.471 64.8138 132.174 64.6446 132.749 64.306C133.325 63.9675 133.828 63.5189 134.26 62.9603L135.694 64.0775C134.543 65.8464 132.817 66.7308 130.515 66.7308ZM130.223 54.4164C129.275 54.4164 128.479 54.7634 127.836 55.4574C127.193 56.1429 126.795 57.1078 126.643 58.3519H133.523V58.1742C133.456 56.9808 133.134 56.0583 132.559 55.4066C131.983 54.7465 131.204 54.4164 130.223 54.4164ZM149.824 66.4769H147.476V60.6117H141.166V66.4769H138.805V52.7406H141.166V58.6947H147.476V52.7406H149.824V66.4769ZM165.224 58.1742H162.977V66.4769H160.539V47.9926H162.977V56.1429H164.881L171.343 47.9926H174.377L167.318 56.9554L174.897 66.4769H171.914L165.224 58.1742ZM180.75 63.0365L183.949 52.7406H186.463L180.94 68.597C180.086 70.8822 178.727 72.0248 176.865 72.0248L176.421 71.9867L175.545 71.8217V69.9174L176.18 69.9681C176.975 69.9681 177.593 69.8073 178.033 69.4857C178.482 69.1641 178.85 68.5759 179.138 67.7211L179.658 66.3246L174.758 52.7406H177.322L180.75 63.0365ZM196.124 56.4984C196.124 55.8552 195.879 55.3474 195.388 54.975C194.897 54.5941 194.224 54.4037 193.369 54.4037C192.54 54.4037 191.846 54.6195 191.287 55.0511C190.737 55.4828 190.462 55.9906 190.462 56.5746H188.126C188.126 55.3812 188.625 54.4037 189.624 53.642C190.623 52.8802 191.871 52.4994 193.369 52.4994C194.977 52.4994 196.23 52.8464 197.127 53.5404C198.024 54.226 198.473 55.2077 198.473 56.4857C198.473 57.1036 198.286 57.6706 197.914 58.1869C197.542 58.7032 197.013 59.1136 196.327 59.4183C197.927 59.96 198.727 61.0264 198.727 62.6176C198.727 63.8786 198.24 64.8773 197.267 65.6136C196.293 66.35 194.994 66.7181 193.369 66.7181C191.786 66.7181 190.479 66.333 189.446 65.5629C188.422 64.7842 187.91 63.7347 187.91 62.4144H190.246C190.246 63.083 190.542 63.6586 191.135 64.141C191.736 64.6149 192.48 64.8519 193.369 64.8519C194.266 64.8519 194.99 64.6446 195.54 64.2299C196.09 63.8151 196.365 63.2777 196.365 62.6176C196.365 61.8474 196.132 61.2972 195.667 60.9672C195.21 60.6286 194.495 60.4594 193.521 60.4594H191.173V58.4789H193.725C195.324 58.4366 196.124 57.7764 196.124 56.4984ZM204.338 57.476H207.905C209.463 57.4929 210.694 57.8991 211.6 58.6947C212.505 59.4903 212.958 60.5694 212.958 61.932C212.958 63.3031 212.493 64.4034 211.562 65.2328C210.631 66.0622 209.378 66.4769 207.804 66.4769H201.989V52.7406H204.338V57.476ZM204.338 59.3929V64.5599H207.829C208.709 64.5599 209.391 64.3357 209.873 63.8871C210.355 63.4301 210.597 62.808 210.597 62.0209C210.597 61.2592 210.36 60.6371 209.886 60.1547C209.42 59.6638 208.764 59.4099 207.918 59.3929H204.338ZM223.8 63.3666L228.472 52.7406H231.404V66.4769H229.056V56.4857L224.612 66.4769H222.987L218.455 56.2699V66.4769H216.106V52.7406H219.153L223.8 63.3666ZM237.739 66.4769H235.391V52.7406H237.739V66.4769ZM235.2 49.097C235.2 48.7162 235.314 48.3946 235.543 48.1322C235.78 47.8698 236.127 47.7386 236.584 47.7386C237.041 47.7386 237.388 47.8698 237.625 48.1322C237.862 48.3946 237.98 48.7162 237.98 49.097C237.98 49.4779 237.862 49.7953 237.625 50.0492C237.388 50.3031 237.041 50.4301 236.584 50.4301C236.127 50.4301 235.78 50.3031 235.543 50.0492C235.314 49.7953 235.2 49.4779 235.2 49.097ZM252.732 66.4769H250.384V60.6117H244.074V66.4769H241.713V52.7406H244.074V58.6947H250.384V52.7406H252.732V66.4769Z" fill="white"/></g><defs><clipPath id="clip0"><rect width="291" height="80" fill="white"/></clipPath></defs></svg>