<svg xmlns="http://www.w3.org/2000/svg" width="292" height="81" viewBox="0 0 292 81" fill="none"><g clip-path="url(#clip0)"><g clip-path="url(#clip1)"><path fill-rule="evenodd" clip-rule="evenodd" d="M32.1667 3.32139L59.8478 13.9846C60.3629 14.1821 60.8045 14.5241 61.1154 14.9661C61.4263 15.4081 61.5923 15.9299 61.5917 16.4638V41.3624C61.5917 52.2655 56.2493 58.9034 50.5193 64.4482C49.5139 65.4171 48.431 66.3085 47.2806 67.114L32.8034 77.2707C32.3293 77.6044 31.7574 77.7842 31.1702 77.7842C30.5831 77.7842 30.0111 77.6044 29.537 77.2707L15.0322 67.114C13.8725 66.3093 12.7803 65.4179 11.7658 64.4482C6.00813 58.93 0.693361 52.2922 0.693361 41.389V16.4638C0.692825 15.9299 0.85877 15.4081 1.1697 14.9661C1.48063 14.5241 1.92222 14.1821 2.43727 13.9846L30.1183 3.32139C30.776 3.06914 31.5091 3.06914 32.1667 3.32139ZM32.0591 7.03489L56.8264 16.6318C57.2872 16.8096 57.6823 17.1174 57.9605 17.5152C58.2387 17.913 58.3872 18.3826 58.3867 18.8631V41.272C58.3867 51.0848 53.6066 57.0589 48.4798 62.0493C47.5802 62.9214 46.6113 63.7236 45.582 64.4486L32.6287 73.5897C32.2046 73.8899 31.6928 74.0517 31.1675 74.0517C30.6421 74.0517 30.1304 73.8899 29.7062 73.5897L16.7281 64.4486C15.6905 63.7243 14.7134 62.9221 13.8056 62.0493C8.654 57.0829 3.89868 51.1088 3.89868 41.296V18.8631C3.8982 18.3826 4.04668 17.913 4.32488 17.5152C4.60308 17.1174 4.99819 16.8096 5.45902 16.6318L30.2263 7.03489C30.8148 6.80787 31.4706 6.80787 32.0591 7.03489Z" fill="white"/><path d="M32.3644 38.928C33.8017 39.8613 35.7244 40.9813 38.1324 42.288C40.5404 43.5947 43.4617 45.116 46.8964 46.852L44.9644 47.496C43.919 46.9733 42.9204 46.4693 41.9684 45.984C41.0164 45.4987 40.111 45.0227 39.2524 44.556C37.1617 43.492 35.3977 42.5493 33.9604 41.728C32.5417 40.9067 31.4124 40.1973 30.5724 39.6C29.4524 40.1973 28.2484 40.7293 26.9604 41.196C25.691 41.644 24.3284 42.0173 22.8724 42.316C21.7524 43.604 20.791 44.696 19.9884 45.592C19.1857 46.4693 18.523 47.1507 18.0004 47.636C16.731 48.868 14.9857 50.3147 12.7644 51.976C12.7084 51.9013 12.6804 51.78 12.6804 51.612C12.6804 51.5 13.0164 51.1733 13.6884 50.632C14.2297 50.2213 14.7524 49.8013 15.2564 49.372C15.7604 48.9613 16.255 48.532 16.7404 48.084C17.5804 47.3187 18.4204 46.4787 19.2604 45.564C20.119 44.6307 21.015 43.6133 21.9484 42.512C20.9404 42.6613 20.0724 42.7733 19.3444 42.848C18.6164 42.904 18.0097 42.932 17.5244 42.932C16.5164 42.932 15.6297 42.8293 14.8644 42.624C14.1177 42.4187 13.4737 42.0827 12.9324 41.616C12.0737 40.9067 11.635 39.9733 11.6164 38.816C11.6164 37.5467 12.3724 36.464 13.8844 35.568C15.415 34.6907 17.291 34.252 19.5124 34.252C19.9977 34.252 20.5017 34.2893 21.0244 34.364C21.547 34.42 22.0884 34.5227 22.6484 34.672C23.395 34.84 24.795 35.26 26.8484 35.932L34.4644 26.608L34.7724 27.252C33.951 28.26 32.9524 29.5107 31.7764 31.004C30.6004 32.4973 29.2004 34.252 27.5764 36.268C27.9497 36.4733 28.4444 36.7533 29.0604 37.108C29.695 37.444 30.4697 37.8733 31.3844 38.396C32.635 37.7427 33.9697 36.9587 35.3884 36.044C36.8257 35.1293 38.375 34.0653 40.0364 32.852C41.4924 31.788 42.8457 30.752 44.0964 29.744C45.347 28.7173 46.523 27.7 47.6244 26.692C47.7737 26.5427 48.0444 26.2813 48.4364 25.908C48.8284 25.516 49.3417 24.984 49.9764 24.312C50.6484 23.6773 51.115 23.332 51.3764 23.276C51.5444 23.276 51.759 23.3507 52.0204 23.5C52.207 23.6307 52.3097 23.7613 52.3284 23.892C52.3284 24.7133 50.2937 26.7293 46.2244 29.94C41.8004 33.356 37.1804 36.352 32.3644 38.928ZM26.6804 37.388C26.2884 37.892 25.8497 38.4613 25.3644 39.096C24.879 39.712 24.3377 40.384 23.7404 41.112C24.8977 40.944 26.923 40.3 29.8164 39.18L26.6804 37.388ZM26.0084 37.192C23.0404 35.848 20.3244 35.176 17.8604 35.176C16.423 35.176 15.163 35.5027 14.0804 36.156C13.0537 36.7907 12.5404 37.5747 12.5404 38.508C12.5404 39.3853 13.0537 40.1507 14.0804 40.804C15.107 41.42 16.4044 41.728 17.9724 41.728C18.215 41.728 18.7284 41.7 19.5124 41.644C20.2964 41.588 21.379 41.4947 22.7604 41.364L26.0084 37.192Z" fill="#CF9455"/><path d="M32.3644 38.928L31.8927 38.0462L30.3999 38.8447L31.8197 39.7667L32.3644 38.928ZM38.1324 42.288L37.6554 43.1669L37.6554 43.1669L38.1324 42.288ZM46.8964 46.852L47.2126 47.8007L49.4889 47.0419L47.3474 45.9595L46.8964 46.852ZM44.9644 47.496L44.5171 48.3904L44.8876 48.5757L45.2806 48.4447L44.9644 47.496ZM41.9684 45.984L41.5142 46.8749L41.5142 46.8749L41.9684 45.984ZM39.2524 44.556L39.7299 43.6774L39.718 43.6709L39.7059 43.6648L39.2524 44.556ZM33.9604 41.728L33.4593 42.5934L33.4642 42.5963L33.9604 41.728ZM30.5724 39.6L31.1519 38.7851L30.6477 38.4265L30.1018 38.7177L30.5724 39.6ZM26.9604 41.196L27.2932 42.139L27.301 42.1362L26.9604 41.196ZM22.8724 42.316L22.6714 41.3364L22.3398 41.4044L22.1177 41.6598L22.8724 42.316ZM19.9884 45.592L20.7262 46.2671L20.7332 46.2593L19.9884 45.592ZM18.0004 47.636L17.3199 46.9032L17.3118 46.9107L17.3039 46.9184L18.0004 47.636ZM12.7644 51.976L11.9644 52.576L12.5635 53.3749L13.3633 52.7768L12.7644 51.976ZM13.6884 50.632L13.084 49.8353L13.0724 49.8441L13.061 49.8533L13.6884 50.632ZM15.2564 49.372L14.6247 48.5968L14.6162 48.6037L14.6079 48.6108L15.2564 49.372ZM16.7404 48.084L16.0668 47.3448L16.0621 47.3492L16.7404 48.084ZM19.2604 45.564L18.5244 44.887L18.5238 44.8876L19.2604 45.564ZM21.9484 42.512L22.7112 43.1585L24.4271 41.1339L21.8018 41.5228L21.9484 42.512ZM19.3444 42.848L19.421 43.8451L19.4337 43.8441L19.4464 43.8428L19.3444 42.848ZM14.8644 42.624L14.5992 43.5882L14.6052 43.5899L14.8644 42.624ZM12.9324 41.616L13.5853 40.8586L13.5773 40.8517L13.5692 40.845L12.9324 41.616ZM11.6164 38.816H10.6164V38.8241L10.6165 38.8321L11.6164 38.816ZM13.8844 35.568L13.3871 34.7004L13.3808 34.704L13.3745 34.7077L13.8844 35.568ZM21.0244 34.364L20.8829 35.354L20.9003 35.3564L20.9178 35.3583L21.0244 34.364ZM22.6484 34.672L22.3907 35.6382L22.4097 35.6433L22.4288 35.6476L22.6484 34.672ZM26.8484 35.932L26.5373 36.8824L27.189 37.0957L27.6228 36.5646L26.8484 35.932ZM34.4644 26.608L35.3665 26.1766L34.6867 24.7551L33.6899 25.9754L34.4644 26.608ZM34.7724 27.252L35.5476 27.8837L35.9479 27.3923L35.6745 26.8206L34.7724 27.252ZM31.7764 31.004L30.9907 30.3853L31.7764 31.004ZM27.5764 36.268L26.7976 35.6407L26.0494 36.5695L27.0944 37.1442L27.5764 36.268ZM29.0604 37.108L28.5614 37.9746L28.5768 37.9835L28.5925 37.9918L29.0604 37.108ZM31.3844 38.396L30.8882 39.2643L31.3628 39.5355L31.8474 39.2824L31.3844 38.396ZM35.3884 36.044L34.8515 35.2003L34.8465 35.2035L35.3884 36.044ZM40.0364 32.852L40.6261 33.6596L40.6264 33.6594L40.0364 32.852ZM44.0964 29.744L44.7239 30.5226L44.7308 30.5169L44.0964 29.744ZM47.6244 26.692L48.2995 27.4297L48.3158 27.4148L48.3315 27.3991L47.6244 26.692ZM48.4364 25.908L49.126 26.6321L49.1348 26.6237L49.1435 26.6151L48.4364 25.908ZM49.9764 24.312L49.2897 23.585L49.269 23.6046L49.2493 23.6254L49.9764 24.312ZM51.3764 23.276V22.276H51.2704L51.1668 22.2982L51.3764 23.276ZM52.0204 23.5L52.5938 22.6808L52.5563 22.6545L52.5165 22.6318L52.0204 23.5ZM52.3284 23.892H53.3284V23.8209L53.3183 23.7506L52.3284 23.892ZM46.2244 29.94L46.8355 30.7316L46.8438 30.7251L46.2244 29.94ZM26.6804 37.388L27.1765 36.5198L26.4235 36.0895L25.891 36.7741L26.6804 37.388ZM25.3644 39.096L26.1498 39.7149L26.1543 39.7092L26.1587 39.7035L25.3644 39.096ZM23.7404 41.112L22.9673 40.4777L21.3307 42.4723L23.884 42.1016L23.7404 41.112ZM29.8164 39.18L30.1773 40.1126L32.1366 39.3541L30.3125 38.3118L29.8164 39.18ZM26.0084 37.192L26.7974 37.8063L27.5772 36.8047L26.4209 36.2811L26.0084 37.192ZM14.0804 36.156L13.5637 35.2998L13.5545 35.3054L14.0804 36.156ZM14.0804 40.804L13.5435 41.6477L13.5546 41.6547L13.5659 41.6615L14.0804 40.804ZM22.7604 41.364L22.8545 42.3596L23.2843 42.3189L23.5494 41.9783L22.7604 41.364ZM31.8197 39.7667C33.2881 40.7202 35.2362 41.8542 37.6554 43.1669L38.6093 41.4091C36.2125 40.1085 34.3153 39.0025 32.909 38.0893L31.8197 39.7667ZM37.6554 43.1669C40.0746 44.4797 43.0051 46.0057 46.4453 47.7445L47.3474 45.9595C43.9183 44.2263 41.0061 42.7097 38.6093 41.4091L37.6554 43.1669ZM46.5801 45.9033L44.6481 46.5473L45.2806 48.4447L47.2126 47.8007L46.5801 45.9033ZM45.4116 46.6016C44.3683 46.08 43.372 45.5772 42.4225 45.0931L41.5142 46.8749C42.4687 47.3615 43.4697 47.8667 44.5171 48.3904L45.4116 46.6016ZM42.4225 45.0931C41.4777 44.6114 40.5801 44.1395 39.7299 43.6774L38.7748 45.4346C39.6419 45.9059 40.5551 46.386 41.5142 46.8749L42.4225 45.0931ZM39.7059 43.6648C37.6242 42.6054 35.8754 41.6706 34.4565 40.8598L33.4642 42.5963C34.92 43.4281 36.6991 44.3787 38.7988 45.4472L39.7059 43.6648ZM34.4614 40.8626C33.056 40.0489 31.9563 39.3571 31.1519 38.7851L29.9928 40.415C30.8685 41.0376 32.0274 41.7644 33.4593 42.5934L34.4614 40.8626ZM30.1018 38.7177C29.0268 39.291 27.8666 39.8041 26.6197 40.2558L27.301 42.1362C28.6302 41.6546 29.8779 41.1037 31.0429 40.4824L30.1018 38.7177ZM26.6275 40.253C25.4054 40.6843 24.0872 41.046 22.6714 41.3364L23.0733 43.2956C24.5695 42.9887 25.9766 42.6037 27.2932 42.139L26.6275 40.253ZM22.1177 41.6598C20.9998 42.9455 20.0419 44.0336 19.2435 44.9248L20.7332 46.2593C21.5402 45.3584 22.5049 44.2625 23.627 42.9722L22.1177 41.6598ZM19.2505 44.917C18.4559 45.7856 17.814 46.4445 17.3199 46.9032L18.6808 48.3688C19.2321 47.8569 19.9155 47.1531 20.7262 46.267L19.2505 44.917ZM17.3039 46.9184C16.0774 48.1089 14.3694 49.5269 12.1654 51.1752L13.3633 52.7768C15.602 51.1025 17.3847 49.6272 18.6968 48.3536L17.3039 46.9184ZM13.5644 51.376C13.643 51.4808 13.6683 51.572 13.6757 51.6042C13.6835 51.6377 13.6804 51.6447 13.6804 51.612H11.6804C11.6804 51.8441 11.71 52.2368 11.9644 52.576L13.5644 51.376ZM13.6804 51.612C13.6804 51.8261 13.6074 51.9739 13.588 52.0122C13.5608 52.0658 13.5374 52.0956 13.5372 52.0958C13.5363 52.097 13.5599 52.0676 13.6294 52C13.7639 51.8693 13.9874 51.6752 14.3157 51.4108L13.061 49.8533C12.7173 50.1301 12.4368 50.3701 12.2353 50.566C12.1368 50.6617 12.0344 50.7688 11.9495 50.8797C11.9073 50.9348 11.8524 51.0126 11.8042 51.1077C11.7638 51.1874 11.6804 51.3699 11.6804 51.612H13.6804ZM14.2927 51.4287C14.8487 51.0069 15.3861 50.5751 15.9048 50.1333L14.6079 48.6108C14.1186 49.0276 13.6107 49.4358 13.084 49.8353L14.2927 51.4287ZM15.888 50.1472C16.4082 49.7234 16.9184 49.2805 17.4186 48.8188L16.0621 47.3492C15.5916 47.7835 15.1125 48.1993 14.6247 48.5968L15.888 50.1472ZM17.4138 48.8232C18.2777 48.0362 19.1386 47.175 19.9969 46.2404L18.5238 44.8876C17.7021 45.7824 16.883 46.6012 16.0669 47.3448L17.4138 48.8232ZM19.9963 46.2411C20.8653 45.2965 21.7703 44.2688 22.7112 43.1585L21.1855 41.8655C20.2597 42.9578 19.3727 43.9649 18.5244 44.887L19.9963 46.2411ZM21.8018 41.5228C20.8033 41.6707 19.951 41.7805 19.2423 41.8532L19.4464 43.8428C20.1937 43.7661 21.0774 43.652 22.0949 43.5012L21.8018 41.5228ZM19.2677 41.851C18.5538 41.9059 17.9748 41.932 17.5244 41.932V43.932C18.0446 43.932 18.6789 43.9022 19.421 43.8451L19.2677 41.851ZM17.5244 41.932C16.5814 41.932 15.785 41.8357 15.1235 41.6582L14.6052 43.5899C15.4743 43.823 16.4514 43.932 17.5244 43.932V41.932ZM15.1295 41.6598C14.5137 41.4905 14.0051 41.2205 13.5853 40.8586L12.2794 42.3734C12.9422 42.9448 13.7217 43.3469 14.5992 43.5882L15.1295 41.6598ZM13.5692 40.845C12.9461 40.3303 12.6304 39.6778 12.6162 38.7999L10.6165 38.8321C10.6397 40.2689 11.2012 41.483 12.2955 42.387L13.5692 40.845ZM12.6164 38.816C12.6164 38.029 13.0555 37.2216 14.3942 36.4283L13.3745 34.7077C11.6892 35.7064 10.6164 37.0643 10.6164 38.816H12.6164ZM14.3816 36.4356C15.7265 35.6648 17.421 35.252 19.5124 35.252V33.252C17.1611 33.252 15.1036 33.7166 13.3871 34.7004L14.3816 36.4356ZM19.5124 35.252C19.9465 35.252 20.4031 35.2854 20.8829 35.354L21.1658 33.3741C20.6003 33.2933 20.0489 33.252 19.5124 33.252V35.252ZM20.9178 35.3583C21.3846 35.4083 21.8753 35.5008 22.3907 35.6382L22.906 33.7058C22.3014 33.5445 21.7095 33.4317 21.1309 33.3697L20.9178 35.3583ZM22.4288 35.6476C23.1221 35.8036 24.4785 36.2086 26.5373 36.8824L27.1594 34.9816C25.1116 34.3114 23.6679 33.8764 22.8679 33.6964L22.4288 35.6476ZM27.6228 36.5646L35.2388 27.2406L33.6899 25.9754L26.0739 35.2994L27.6228 36.5646ZM33.5622 27.0395L33.8702 27.6835L35.6745 26.8206L35.3665 26.1766L33.5622 27.0395ZM33.9971 26.6203C33.1711 27.6341 32.1687 28.8894 30.9907 30.3853L32.562 31.6227C33.736 30.1319 34.7309 28.8859 35.5476 27.8837L33.9971 26.6203ZM30.9907 30.3853C29.8176 31.8749 28.4201 33.6266 26.7976 35.6407L28.3551 36.8953C29.9807 34.8774 31.3831 33.1197 32.562 31.6227L30.9907 30.3853ZM27.0944 37.1442C27.4596 37.345 27.9479 37.6214 28.5614 37.9746L29.5593 36.2414C28.9409 35.8853 28.4398 35.6016 28.0583 35.3918L27.0944 37.1442ZM28.5925 37.9918C29.2144 38.321 29.979 38.7447 30.8882 39.2643L31.8805 37.5278C30.9604 37.002 30.1757 36.567 29.5282 36.2242L28.5925 37.9918ZM31.8474 39.2824C33.1296 38.6125 34.4908 37.8125 35.9302 36.8845L34.8465 35.2035C33.4486 36.1048 32.1404 36.8728 30.9213 37.5097L31.8474 39.2824ZM35.9252 36.8877C37.3838 35.9595 38.951 34.883 40.6261 33.6596L39.4466 32.0445C37.7991 33.2477 36.2676 34.2992 34.8515 35.2003L35.9252 36.8877ZM40.6264 33.6594C42.0936 32.5872 43.4596 31.5416 44.7239 30.5226L43.4688 28.9654C42.2318 29.9624 40.8911 30.9888 39.4463 32.0446L40.6264 33.6594ZM44.7308 30.5169C45.9942 29.4798 47.1839 28.4508 48.2995 27.4297L46.9492 25.9543C45.8621 26.9493 44.6998 27.9549 43.4619 28.9711L44.7308 30.5169ZM48.3315 27.3991C48.4711 27.2595 48.7336 27.0059 49.126 26.6321L47.7467 25.1839C47.3551 25.5568 47.0763 25.8259 46.9172 25.9849L48.3315 27.3991ZM49.1435 26.6151C49.5451 26.2134 50.0658 25.6737 50.7034 24.9986L49.2493 23.6254C48.6175 24.2944 48.1116 24.8186 47.7292 25.2009L49.1435 26.6151ZM50.663 25.039C50.9848 24.7351 51.237 24.5201 51.4252 24.3809C51.519 24.3114 51.5844 24.2702 51.6246 24.248C51.6719 24.2219 51.6537 24.2393 51.5859 24.2538L51.1668 22.2982C50.8101 22.3746 50.4799 22.5923 50.2355 22.7732C49.9571 22.9792 49.6399 23.2542 49.2897 23.585L50.663 25.039ZM51.3764 24.276C51.3168 24.276 51.2984 24.2638 51.3348 24.2765C51.3689 24.2884 51.4309 24.3149 51.5242 24.3683L52.5165 22.6318C52.2067 22.4548 51.8073 22.276 51.3764 22.276V24.276ZM51.4469 24.3192C51.4874 24.3476 51.4782 24.3484 51.451 24.3138C51.4215 24.2763 51.3596 24.1816 51.3384 24.0334L53.3183 23.7506C53.2401 23.203 52.8523 22.8617 52.5938 22.6808L51.4469 24.3192ZM51.3284 23.892C51.3284 23.7561 51.3774 23.8101 51.1342 24.1493C50.9265 24.4389 50.5892 24.8235 50.0985 25.3097C49.1211 26.2781 47.6296 27.5575 45.6049 29.1549L46.8438 30.7251C48.8884 29.1118 50.4489 27.7779 51.5062 26.7304C52.0329 26.2085 52.4586 25.7344 52.7595 25.3148C53.025 24.9446 53.3284 24.4386 53.3284 23.892H51.3284ZM45.6132 29.1485C41.2321 32.5314 36.6586 35.497 31.8927 38.0462L32.836 39.8098C37.7021 37.207 42.3686 34.1806 46.8355 30.7315L45.6132 29.1485ZM25.891 36.7741C25.497 37.2807 25.0566 37.8522 24.57 38.4886L26.1587 39.7035C26.6428 39.0705 27.0797 38.5033 27.4697 38.0019L25.891 36.7741ZM24.5789 38.4771C24.0983 39.087 23.5612 39.7538 22.9673 40.4777L24.5134 41.7463C25.1141 41.0142 25.6597 40.337 26.1498 39.7149L24.5789 38.4771ZM23.884 42.1016C25.1682 41.9152 27.2923 41.2294 30.1773 40.1126L29.4554 38.2474C26.5537 39.3707 24.6272 39.9728 23.5967 40.1224L23.884 42.1016ZM30.3125 38.3118L27.1765 36.5198L26.1842 38.2563L29.3202 40.0483L30.3125 38.3118ZM26.4209 36.2811C23.363 34.8964 20.5046 34.176 17.8604 34.176V36.176C20.1441 36.176 22.7177 36.7996 25.5958 38.103L26.4209 36.2811ZM17.8604 34.176C16.2663 34.176 14.8227 34.5401 13.5637 35.2998L14.597 37.0122C15.5034 36.4653 16.5797 36.176 17.8604 36.176V34.176ZM13.5545 35.3054C12.3313 36.0616 11.5404 37.1265 11.5404 38.508H13.5404C13.5404 38.0228 13.7761 37.5198 14.6062 37.0066L13.5545 35.3054ZM11.5404 38.508C11.5404 39.8512 12.3513 40.889 13.5435 41.6477L14.6172 39.9603C13.756 39.4123 13.5404 38.9195 13.5404 38.508H11.5404ZM13.5659 41.6615C14.789 42.3954 16.2779 42.728 17.9724 42.728V40.728C16.5308 40.728 15.425 40.4446 14.5948 39.9465L13.5659 41.6615ZM17.9724 42.728C18.2573 42.728 18.8076 42.6969 19.5836 42.6415L19.4411 40.6466C18.6491 40.7031 18.1728 40.728 17.9724 40.728V42.728ZM19.5836 42.6415C20.3789 42.5847 21.4704 42.4905 22.8545 42.3596L22.6662 40.3685C21.2877 40.4989 20.2138 40.5914 19.4411 40.6466L19.5836 42.6415ZM23.5494 41.9783L26.7974 37.8063L25.2193 36.5777L21.9713 40.7497L23.5494 41.9783Z" fill="#CF9455"/></g><path d="M96.3362 31.5269H86.2092L83.9348 37.8354H80.6477L89.8782 13.6636H92.6672L101.914 37.8354H98.6438L96.3362 31.5269ZM87.1721 28.9038H95.3899L91.2727 17.5981L87.1721 28.9038ZM104.537 35.3286L105.6 34.0171C106.795 32.4676 107.476 30.1434 107.642 27.0444L107.924 19.8726H119.495V35.3286H121.803V43.1147H118.732V37.8354H106.198V43.1147H103.126L103.143 35.3286H104.537ZM108.173 35.3286H116.424V22.7114H110.896L110.713 26.9946C110.525 30.5695 109.678 33.3475 108.173 35.3286ZM125.489 37.8354V19.8726H132.494C134.885 19.8726 136.717 20.2931 137.99 21.1343C139.273 21.9644 139.915 23.1873 139.915 24.8032C139.915 25.6333 139.666 26.3859 139.168 27.061C138.67 27.7251 137.934 28.2342 136.96 28.5884C138.045 28.8429 138.914 29.341 139.567 30.0825C140.231 30.8241 140.563 31.7095 140.563 32.7388C140.563 34.3879 139.954 35.6496 138.737 36.5239C137.53 37.3983 135.82 37.8354 133.607 37.8354H125.489ZM128.56 29.9497V35.3618H133.64C134.924 35.3618 135.881 35.1239 136.512 34.6479C137.154 34.172 137.475 33.5024 137.475 32.6392C137.475 30.8462 136.158 29.9497 133.524 29.9497H128.56ZM128.56 27.4927H132.528C135.405 27.4927 136.844 26.6515 136.844 24.9692C136.844 23.2869 135.483 22.4181 132.76 22.3628H128.56V27.4927ZM143.817 28.688C143.817 26.9282 144.16 25.3455 144.846 23.9399C145.543 22.5343 146.506 21.4497 147.735 20.686C148.974 19.9224 150.385 19.5405 151.968 19.5405C154.414 19.5405 156.39 20.3872 157.895 22.0806C159.411 23.7739 160.169 26.0262 160.169 28.8374V29.0532C160.169 30.8019 159.832 32.3735 159.156 33.7681C158.492 35.1515 157.535 36.2306 156.284 37.0054C155.045 37.7801 153.617 38.1675 152.001 38.1675C149.566 38.1675 147.591 37.3208 146.074 35.6274C144.569 33.9341 143.817 31.6929 143.817 28.9038V28.688ZM146.905 29.0532C146.905 31.0454 147.364 32.6447 148.282 33.8511C149.212 35.0575 150.452 35.6606 152.001 35.6606C153.562 35.6606 154.801 35.0519 155.72 33.8345C156.639 32.606 157.098 30.8905 157.098 28.688C157.098 26.7179 156.628 25.1242 155.687 23.9067C154.757 22.6782 153.517 22.064 151.968 22.064C150.452 22.064 149.229 22.6672 148.299 23.8735C147.369 25.0799 146.905 26.8065 146.905 29.0532ZM169.615 30.1821H167.374V37.8354H164.286V19.8726H167.374V27.4761H169.383L175.426 19.8726H179.145L172.039 28.5054L179.742 37.8354H175.841L169.615 30.1821ZM193.472 37.8354C193.295 37.4813 193.151 36.8504 193.04 35.9429C191.613 37.4259 189.908 38.1675 187.927 38.1675C186.156 38.1675 184.701 37.6694 183.561 36.6733C182.432 35.6662 181.867 34.3934 181.867 32.855C181.867 30.9845 182.576 29.5347 183.992 28.5054C185.42 27.465 187.423 26.9448 190.002 26.9448H192.99V25.5337C192.99 24.4601 192.67 23.6079 192.028 22.9771C191.386 22.3351 190.439 22.0142 189.189 22.0142C188.093 22.0142 187.174 22.2909 186.433 22.8442C185.691 23.3976 185.321 24.0672 185.321 24.853H182.233C182.233 23.9565 182.548 23.0933 183.179 22.2632C183.821 21.422 184.684 20.758 185.769 20.271C186.865 19.784 188.065 19.5405 189.371 19.5405C191.441 19.5405 193.062 20.0607 194.236 21.1011C195.409 22.1304 196.017 23.5526 196.062 25.3677V33.6353C196.062 35.2843 196.272 36.5959 196.693 37.5698V37.8354H193.472ZM188.375 35.4946C189.338 35.4946 190.251 35.2456 191.115 34.7476C191.978 34.2495 192.603 33.6021 192.99 32.8052V29.1196H190.583C186.82 29.1196 184.939 30.2209 184.939 32.4233C184.939 33.3862 185.26 34.1388 185.902 34.6812C186.544 35.2235 187.368 35.4946 188.375 35.4946ZM213.958 22.3628H207.932V37.8354H204.861V22.3628H198.95V19.8726H213.958V22.3628Z" fill="white"/><path d="M92.7766 58.9275H84.7659V65.4783H94.0715V67.4714H82.3284V48.9871H93.9446V50.9929H84.7659V56.9343H92.7766V58.9275ZM96.9534 67.4714V53.7351H102.311C104.139 53.7351 105.54 54.0567 106.513 54.7C107.495 55.3347 107.986 56.2699 107.986 57.5056C107.986 58.1404 107.795 58.7159 107.414 59.2322C107.033 59.74 106.471 60.1293 105.726 60.4001C106.555 60.5948 107.22 60.9757 107.719 61.5427C108.227 62.1098 108.481 62.7869 108.481 63.574C108.481 64.835 108.015 65.7999 107.084 66.4685C106.162 67.1371 104.854 67.4714 103.161 67.4714H96.9534ZM99.302 61.4412V65.5798H103.187C104.169 65.5798 104.901 65.3979 105.383 65.0339C105.874 64.67 106.119 64.158 106.119 63.4978C106.119 62.1267 105.112 61.4412 103.098 61.4412H99.302ZM99.302 59.5623H102.336C104.537 59.5623 105.637 58.919 105.637 57.6326C105.637 56.3461 104.596 55.6817 102.514 55.6394H99.302V59.5623ZM120.465 55.6775H114.13V67.4714H111.769V53.7351H120.465V55.6775ZM127.955 67.7253C126.093 67.7253 124.578 67.116 123.41 65.8972C122.242 64.67 121.658 63.0323 121.658 60.9841V60.5525C121.658 59.1899 121.917 57.9753 122.433 56.9089C122.958 55.8341 123.685 54.9962 124.616 54.3953C125.556 53.7859 126.572 53.4812 127.663 53.4812C129.449 53.4812 130.837 54.0694 131.827 55.2458C132.818 56.4223 133.313 58.1065 133.313 60.2986V61.2761H124.007C124.041 62.6303 124.434 63.7263 125.188 64.5642C125.949 65.3936 126.914 65.8083 128.082 65.8083C128.912 65.8083 129.614 65.6391 130.19 65.3005C130.765 64.962 131.269 64.5134 131.7 63.9548L133.135 65.072C131.984 66.8409 130.257 67.7253 127.955 67.7253ZM127.663 55.4109C126.715 55.4109 125.92 55.7579 125.277 56.4519C124.633 57.1375 124.236 58.1023 124.083 59.3464H130.964V59.1687C130.896 57.9753 130.575 57.0528 129.999 56.4011C129.424 55.741 128.645 55.4109 127.663 55.4109ZM147.265 67.4714H144.916V61.6062H138.607V67.4714H136.245V53.7351H138.607V59.6892H144.916V53.7351H147.265V67.4714ZM159.935 53.7351H162.283V67.4714H159.935V57.4548L153.6 67.4714H151.251V53.7351H153.6V63.7644L159.935 53.7351ZM174.941 53.7351H177.289V67.4714H174.941V57.4548L168.606 67.4714H166.257V53.7351H168.606V63.7644L174.941 53.7351ZM175.575 48.7332C175.575 49.7572 175.224 50.5824 174.522 51.2087C173.828 51.8266 172.914 52.1355 171.78 52.1355C170.645 52.1355 169.727 51.8223 169.025 51.196C168.322 50.5697 167.971 49.7488 167.971 48.7332H169.888C169.888 49.3256 170.049 49.7911 170.37 50.1296C170.692 50.4597 171.162 50.6248 171.78 50.6248C172.372 50.6248 172.833 50.4597 173.163 50.1296C173.502 49.7996 173.671 49.3341 173.671 48.7332H175.575ZM192.676 59.1687H190.429V67.4714H187.991V48.9871H190.429V57.1375H192.333L198.795 48.9871H201.829L194.771 57.95L202.35 67.4714H199.366L192.676 59.1687ZM208.202 64.031L211.402 53.7351H213.915L208.393 69.5916C207.538 71.8767 206.18 73.0193 204.318 73.0193L203.873 72.9812L202.997 72.8162V70.9119L203.632 70.9626C204.428 70.9626 205.045 70.8018 205.486 70.4802C205.934 70.1586 206.302 69.5704 206.59 68.7156L207.111 67.3191L202.21 53.7351H204.775L208.202 64.031ZM223.576 57.4929C223.576 56.8497 223.331 56.3419 222.84 55.9695C222.349 55.5886 221.676 55.3982 220.822 55.3982C219.992 55.3982 219.298 55.614 218.74 56.0457C218.189 56.4773 217.914 56.9851 217.914 57.5691H215.578C215.578 56.3757 216.078 55.3982 217.076 54.6365C218.075 53.8748 219.323 53.4939 220.822 53.4939C222.43 53.4939 223.682 53.8409 224.579 54.5349C225.476 55.2205 225.925 56.2022 225.925 57.4802C225.925 58.0981 225.739 58.6651 225.366 59.1814C224.994 59.6977 224.465 60.1082 223.78 60.4128C225.379 60.9545 226.179 62.0209 226.179 63.6121C226.179 64.8731 225.692 65.8718 224.719 66.6082C223.746 67.3445 222.447 67.7126 220.822 67.7126C219.239 67.7126 217.931 67.3276 216.899 66.5574C215.875 65.7787 215.363 64.7292 215.363 63.4089H217.698C217.698 64.0776 217.995 64.6531 218.587 65.1355C219.188 65.6095 219.933 65.8464 220.822 65.8464C221.719 65.8464 222.442 65.6391 222.992 65.2244C223.543 64.8097 223.818 64.2722 223.818 63.6121C223.818 62.8419 223.585 62.2917 223.119 61.9617C222.662 61.6231 221.947 61.4539 220.974 61.4539H218.625V59.4734H221.177C222.777 59.4311 223.576 58.7709 223.576 57.4929ZM231.79 58.4705H235.358C236.915 58.4874 238.146 58.8936 239.052 59.6892C239.958 60.4848 240.41 61.5639 240.41 62.9265C240.41 64.2976 239.945 65.3979 239.014 66.2273C238.083 67.0567 236.83 67.4714 235.256 67.4714H229.442V53.7351H231.79V58.4705ZM231.79 60.3875V65.5544H235.281C236.162 65.5544 236.843 65.3302 237.325 64.8816C237.808 64.4246 238.049 63.8025 238.049 63.0154C238.049 62.2537 237.812 61.6316 237.338 61.1492C236.873 60.6583 236.217 60.4044 235.37 60.3875H231.79ZM251.252 64.3611L255.924 53.7351H258.857V67.4714H256.508V57.4802L252.065 67.4714H250.44L245.907 57.2644V67.4714H243.559V53.7351H246.606L251.252 64.3611ZM271.527 53.7351H273.875V67.4714H271.527V57.4548L265.192 67.4714H262.843V53.7351H265.192V63.7644L271.527 53.7351ZM288.868 67.4714H286.52V61.6062H280.21V67.4714H277.849V53.7351H280.21V59.6892H286.52V53.7351H288.868V67.4714Z" fill="white"/></g><defs><clipPath id="clip0"><rect width="291" height="80" fill="white" transform="translate(0.182861 0.994507)"/></clipPath><clipPath id="clip1"><rect width="62" height="75" fill="white" transform="translate(0.182861 2.99451)"/></clipPath></defs></svg>