<svg width="63" height="75" viewBox="0 0 63 75" fill="none" xmlns="http://www.w3.org/2000/svg">
<mask id="mask0_182_10" style="mask-type:luminance" maskUnits="userSpaceOnUse" x="0" y="-1" width="63" height="76">
<path d="M62.1826 -0.00549316H0.182617V74.9945H62.1826V-0.00549316Z" fill="white"/>
</mask>
<g mask="url(#mask0_182_10)">
<path fill-rule="evenodd" clip-rule="evenodd" d="M32.1667 0.32139L59.8478 10.9846C60.3629 11.1821 60.8045 11.5241 61.1154 11.9661C61.4263 12.4081 61.5923 12.9299 61.5917 13.4638V38.3624C61.5917 49.2655 56.2493 55.9034 50.5193 61.4482C49.5139 62.4171 48.431 63.3085 47.2806 64.114L32.8034 74.2707C32.3293 74.6044 31.7574 74.7842 31.1702 74.7842C30.5831 74.7842 30.0111 74.6044 29.537 74.2707L15.0322 64.114C13.8725 63.3093 12.7803 62.4179 11.7658 61.4482C6.00813 55.93 0.693361 49.2922 0.693361 38.389V13.4638C0.692825 12.9299 0.85877 12.4081 1.1697 11.9661C1.48063 11.5241 1.92222 11.1821 2.43727 10.9846L30.1183 0.32139C30.776 0.0691397 31.5091 0.0691397 32.1667 0.32139ZM32.0591 4.03489L56.8264 13.6318C57.2872 13.8096 57.6823 14.1174 57.9605 14.5152C58.2387 14.913 58.3872 15.3826 58.3867 15.8631V38.272C58.3867 48.0848 53.6066 54.0589 48.4798 59.0493C47.5802 59.9214 46.6113 60.7236 45.582 61.4486L32.6287 70.5897C32.2046 70.8899 31.6928 71.0517 31.1675 71.0517C30.6421 71.0517 30.1304 70.8899 29.7062 70.5897L16.7281 61.4486C15.6905 60.7243 14.7134 59.9221 13.8056 59.0493C8.654 54.0829 3.89868 48.1088 3.89868 38.296V15.8631C3.8982 15.3826 4.04668 14.913 4.32488 14.5152C4.60308 14.1174 4.99819 13.8096 5.45902 13.6318L30.2263 4.03489C30.8148 3.80787 31.4706 3.80787 32.0591 4.03489Z" fill="white"/>
<path d="M32.3642 35.928C33.8015 36.8613 35.7242 37.9813 38.1322 39.288C40.5402 40.5947 43.4615 42.116 46.8962 43.852L44.9642 44.496C43.9188 43.9733 42.9202 43.4693 41.9682 42.984C41.0162 42.4987 40.1108 42.0227 39.2522 41.556C37.1615 40.492 35.3975 39.5493 33.9602 38.728C32.5415 37.9067 31.4122 37.1973 30.5722 36.6C29.4522 37.1973 28.2482 37.7293 26.9602 38.196C25.6908 38.644 24.3282 39.0173 22.8722 39.316C21.7522 40.604 20.7908 41.696 19.9882 42.592C19.1855 43.4693 18.5228 44.1507 18.0002 44.636C16.7308 45.868 14.9855 47.3147 12.7642 48.976C12.7082 48.9013 12.6802 48.78 12.6802 48.612C12.6802 48.5 13.0162 48.1733 13.6882 47.632C14.2295 47.2213 14.7522 46.8013 15.2562 46.372C15.7602 45.9613 16.2548 45.532 16.7402 45.084C17.5802 44.3187 18.4202 43.4787 19.2602 42.564C20.1188 41.6307 21.0148 40.6133 21.9482 39.512C20.9402 39.6613 20.0722 39.7733 19.3442 39.848C18.6162 39.904 18.0095 39.932 17.5242 39.932C16.5162 39.932 15.6295 39.8293 14.8642 39.624C14.1175 39.4187 13.4735 39.0827 12.9322 38.616C12.0735 37.9067 11.6348 36.9733 11.6162 35.816C11.6162 34.5467 12.3722 33.464 13.8842 32.568C15.4148 31.6907 17.2908 31.252 19.5122 31.252C19.9975 31.252 20.5015 31.2893 21.0242 31.364C21.5468 31.42 22.0882 31.5227 22.6482 31.672C23.3948 31.84 24.7948 32.26 26.8482 32.932L34.4642 23.608L34.7722 24.252C33.9508 25.26 32.9522 26.5107 31.7762 28.004C30.6002 29.4973 29.2002 31.252 27.5762 33.268C27.9495 33.4733 28.4442 33.7533 29.0602 34.108C29.6948 34.444 30.4695 34.8733 31.3842 35.396C32.6348 34.7427 33.9695 33.9587 35.3882 33.044C36.8255 32.1293 38.3748 31.0653 40.0362 29.852C41.4922 28.788 42.8455 27.752 44.0962 26.744C45.3468 25.7173 46.5228 24.7 47.6242 23.692C47.7735 23.5427 48.0442 23.2813 48.4362 22.908C48.8282 22.516 49.3415 21.984 49.9762 21.312C50.6482 20.6773 51.1148 20.332 51.3762 20.276C51.5442 20.276 51.7588 20.3507 52.0202 20.5C52.2068 20.6307 52.3095 20.7613 52.3282 20.892C52.3282 21.7133 50.2935 23.7293 46.2242 26.94C41.8002 30.356 37.1802 33.352 32.3642 35.928ZM26.6802 34.388C26.2882 34.892 25.8495 35.4613 25.3642 36.096C24.8788 36.712 24.3375 37.384 23.7402 38.112C24.8975 37.944 26.9228 37.3 29.8162 36.18L26.6802 34.388ZM26.0082 34.192C23.0402 32.848 20.3242 32.176 17.8602 32.176C16.4228 32.176 15.1628 32.5027 14.0802 33.156C13.0535 33.7907 12.5402 34.5747 12.5402 35.508C12.5402 36.3853 13.0535 37.1507 14.0802 37.804C15.1068 38.42 16.4042 38.728 17.9722 38.728C18.2148 38.728 18.7282 38.7 19.5122 38.644C20.2962 38.588 21.3788 38.4947 22.7602 38.364L26.0082 34.192Z" fill="#CF9455"/>
<path d="M32.3642 35.928L31.8925 35.0462L30.3997 35.8447L31.8195 36.7667L32.3642 35.928ZM46.8962 43.852L47.2124 44.8007L49.4887 44.0419L47.3472 42.9595L46.8962 43.852ZM44.9642 44.496L44.5169 45.3904L44.8874 45.5757L45.2804 45.4447L44.9642 44.496ZM39.2522 41.556L39.7297 40.6774L39.7178 40.6709L39.7057 40.6648L39.2522 41.556ZM33.9602 38.728L33.4591 39.5934L33.464 39.5963L33.9602 38.728ZM30.5722 36.6L31.1517 35.7851L30.6475 35.4265L30.1016 35.7177L30.5722 36.6ZM26.9602 38.196L27.293 39.139L27.3008 39.1362L26.9602 38.196ZM22.8722 39.316L22.6712 38.3364L22.3396 38.4044L22.1175 38.6598L22.8722 39.316ZM19.9882 42.592L20.726 43.2671L20.733 43.2593L19.9882 42.592ZM18.0002 44.636L17.3197 43.9032L17.3116 43.9107L17.3037 43.9184L18.0002 44.636ZM12.7642 48.976L11.9642 49.576L12.5633 50.3749L13.3631 49.7768L12.7642 48.976ZM13.6882 47.632L13.0838 46.8353L13.0722 46.8441L13.0608 46.8533L13.6882 47.632ZM15.2562 46.372L14.6245 45.5968L14.616 45.6037L14.6077 45.6108L15.2562 46.372ZM16.7402 45.084L16.0666 44.3448L16.0619 44.3492L16.7402 45.084ZM21.9482 39.512L22.711 40.1585L24.4269 38.1339L21.8016 38.5228L21.9482 39.512ZM19.3442 39.848L19.4208 40.8451L19.4335 40.8441L19.4462 40.8428L19.3442 39.848ZM14.8642 39.624L14.599 40.5882L14.605 40.5899L14.8642 39.624ZM12.9322 38.616L13.5851 37.8586L13.5771 37.8517L13.569 37.845L12.9322 38.616ZM11.6162 35.816H10.6162V35.8241L10.6163 35.8321L11.6162 35.816ZM13.8842 32.568L13.3869 31.7004L13.3806 31.704L13.3743 31.7077L13.8842 32.568ZM21.0242 31.364L20.8827 32.354L20.9001 32.3564L20.9176 32.3583L21.0242 31.364ZM22.6482 31.672L22.3905 32.6382L22.4095 32.6433L22.4286 32.6476L22.6482 31.672ZM26.8482 32.932L26.5371 33.8824L27.1888 34.0957L27.6226 33.5646L26.8482 32.932ZM34.4642 23.608L35.3663 23.1766L34.6865 21.7551L33.6897 22.9754L34.4642 23.608ZM34.7722 24.252L35.5474 24.8837L35.9477 24.3923L35.6743 23.8206L34.7722 24.252ZM27.5762 33.268L26.7974 32.6407L26.0492 33.5695L27.0942 34.1442L27.5762 33.268ZM29.0602 34.108L28.5612 34.9746L28.5766 34.9835L28.5923 34.9918L29.0602 34.108ZM31.3842 35.396L30.888 36.2643L31.3626 36.5355L31.8472 36.2824L31.3842 35.396ZM35.3882 33.044L34.8513 32.2003L34.8463 32.2035L35.3882 33.044ZM44.0962 26.744L44.7237 27.5226L44.7306 27.5169L44.0962 26.744ZM47.6242 23.692L48.2993 24.4297L48.3156 24.4148L48.3313 24.3991L47.6242 23.692ZM48.4362 22.908L49.1258 23.6321L49.1346 23.6237L49.1433 23.6151L48.4362 22.908ZM49.9762 21.312L49.2895 20.585L49.2688 20.6046L49.2491 20.6254L49.9762 21.312ZM51.3762 20.276V19.276H51.2702L51.1666 19.2982L51.3762 20.276ZM52.0202 20.5L52.5936 19.6808L52.5561 19.6545L52.5163 19.6318L52.0202 20.5ZM52.3282 20.892H53.3282V20.8209L53.3181 20.7506L52.3282 20.892ZM46.2242 26.94L46.8353 27.7316L46.8436 27.7251L46.2242 26.94ZM26.6802 34.388L27.1763 33.5198L26.4233 33.0895L25.8908 33.7741L26.6802 34.388ZM25.3642 36.096L26.1496 36.7149L26.1541 36.7092L26.1585 36.7035L25.3642 36.096ZM23.7402 38.112L22.9671 37.4777L21.3305 39.4723L23.8838 39.1016L23.7402 38.112ZM29.8162 36.18L30.1771 37.1126L32.1364 36.3541L30.3123 35.3118L29.8162 36.18ZM26.0082 34.192L26.7972 34.8063L27.577 33.8047L26.4207 33.2811L26.0082 34.192ZM14.0802 33.156L13.5635 32.2998L13.5543 32.3054L14.0802 33.156ZM14.0802 37.804L13.5433 38.6477L13.5544 38.6547L13.5657 38.6615L14.0802 37.804ZM22.7602 38.364L22.8543 39.3596L23.2841 39.3189L23.5492 38.9783L22.7602 38.364ZM31.8195 36.7667C33.2879 37.7202 35.236 38.8542 37.6552 40.1669L38.6091 38.4091C36.2123 37.1085 34.3151 36.0025 32.9088 35.0893L31.8195 36.7667ZM37.6552 40.1669C40.0744 41.4797 43.0049 43.0057 46.4451 44.7445L47.3472 42.9595C43.9181 41.2263 41.0059 39.7097 38.6091 38.4091L37.6552 40.1669ZM46.5799 42.9033L44.6479 43.5473L45.2804 45.4447L47.2124 44.8007L46.5799 42.9033ZM45.4114 43.6016C44.3681 43.08 43.3718 42.5772 42.4223 42.0931L41.514 43.8749C42.4685 44.3615 43.4695 44.8667 44.5169 45.3904L45.4114 43.6016ZM42.4223 42.0931C41.4775 41.6114 40.5799 41.1395 39.7297 40.6774L38.7746 42.4346C39.6417 42.9059 40.5549 43.386 41.514 43.8749L42.4223 42.0931ZM39.7057 40.6648C37.624 39.6054 35.8752 38.6706 34.4563 37.8598L33.464 39.5963C34.9198 40.4281 36.6989 41.3787 38.7986 42.4472L39.7057 40.6648ZM34.4612 37.8626C33.0558 37.0489 31.9561 36.3571 31.1517 35.7851L29.9926 37.415C30.8683 38.0376 32.0272 38.7644 33.4591 39.5934L34.4612 37.8626ZM30.1016 35.7177C29.0266 36.291 27.8664 36.8041 26.6195 37.2558L27.3008 39.1362C28.63 38.6546 29.8777 38.1037 31.0427 37.4824L30.1016 35.7177ZM26.6273 37.253C25.4052 37.6843 24.087 38.046 22.6712 38.3364L23.0731 40.2956C24.5693 39.9887 25.9764 39.6037 27.293 39.139L26.6273 37.253ZM22.1175 38.6598C20.9996 39.9455 20.0417 41.0336 19.2433 41.9248L20.733 43.2593C21.54 42.3584 22.5047 41.2625 23.6268 39.9722L22.1175 38.6598ZM19.2503 41.917C18.4557 42.7856 17.8138 43.4445 17.3197 43.9032L18.6806 45.3688C19.2319 44.8569 19.9153 44.1532 20.726 43.2671L19.2503 41.917ZM17.3037 43.9184C16.0772 45.1089 14.3692 46.5269 12.1652 48.1752L13.3631 49.7768C15.6018 48.1025 17.3845 46.6272 18.6966 45.3536L17.3037 43.9184ZM13.5642 48.376C13.6428 48.4808 13.6681 48.572 13.6755 48.6042C13.6833 48.6377 13.6802 48.6447 13.6802 48.612H11.6802C11.6802 48.8441 11.7098 49.2368 11.9642 49.576L13.5642 48.376ZM13.6802 48.612C13.6802 48.8261 13.6072 48.9739 13.5878 49.0122C13.5606 49.0658 13.5372 49.0956 13.537 49.0958C13.5361 49.097 13.5597 49.0676 13.6292 49C13.7637 48.8693 13.9872 48.6752 14.3155 48.4108L13.0608 46.8533C12.7171 47.1301 12.4366 47.3701 12.2351 47.566C12.1366 47.6617 12.0342 47.7688 11.9493 47.8797C11.9071 47.9348 11.8522 48.0126 11.804 48.1077C11.7636 48.1874 11.6802 48.3699 11.6802 48.612H13.6802ZM14.2925 48.4287C14.8485 48.0069 15.3859 47.5751 15.9046 47.1333L14.6077 45.6108C14.1184 46.0276 13.6105 46.4358 13.0838 46.8353L14.2925 48.4287ZM15.8878 47.1472C16.408 46.7234 16.9182 46.2805 17.4184 45.8188L16.0619 44.3492C15.5914 44.7835 15.1123 45.1993 14.6245 45.5968L15.8878 47.1472ZM17.4136 45.8232C18.2775 45.0362 19.1384 44.175 19.9967 43.2404L18.5242 41.887C17.7025 42.7818 16.8827 43.6012 16.0666 44.3448L17.4136 45.8232ZM19.9967 43.2404C20.8657 42.2958 21.7701 41.2688 22.711 40.1585L21.1853 38.8655C20.2595 39.9578 19.3725 40.9649 18.5242 41.887L19.9967 43.2404ZM21.8016 38.5228C20.8031 38.6707 19.9508 38.7805 19.2421 38.8532L19.4462 40.8428C20.1935 40.7661 21.0772 40.652 22.0947 40.5012L21.8016 38.5228ZM19.2675 38.851C18.5536 38.9059 17.9746 38.932 17.5242 38.932V40.932C18.0444 40.932 18.6787 40.9022 19.4208 40.8451L19.2675 38.851ZM17.5242 38.932C16.5812 38.932 15.7848 38.8357 15.1233 38.6582L14.605 40.5899C15.4741 40.823 16.4512 40.932 17.5242 40.932V38.932ZM15.1293 38.6598C14.5135 38.4905 14.0049 38.2205 13.5851 37.8586L12.2792 39.3734C12.942 39.9448 13.7215 40.3469 14.599 40.5882L15.1293 38.6598ZM13.569 37.845C12.9459 37.3303 12.6302 36.6778 12.616 35.7999L10.6163 35.8321C10.6395 37.2689 11.201 38.483 12.2953 39.387L13.569 37.845ZM12.6162 35.816C12.6162 35.029 13.0553 34.2216 14.394 33.4283L13.3743 31.7077C11.689 32.7064 10.6162 34.0643 10.6162 35.816H12.6162ZM14.3814 33.4356C15.7263 32.6648 17.4208 32.252 19.5122 32.252V30.252C17.1609 30.252 15.1034 30.7166 13.3869 31.7004L14.3814 33.4356ZM19.5122 32.252C19.9463 32.252 20.4029 32.2854 20.8827 32.354L21.1656 30.3741C20.6001 30.2933 20.0487 30.252 19.5122 30.252V32.252ZM20.9176 32.3583C21.3844 32.4083 21.8751 32.5008 22.3905 32.6382L22.9058 30.7058C22.3012 30.5445 21.7093 30.4317 21.1307 30.3697L20.9176 32.3583ZM22.4286 32.6476C23.1219 32.8036 24.4783 33.2086 26.5371 33.8824L27.1592 31.9816C25.1114 31.3114 23.6677 30.8764 22.8677 30.6964L22.4286 32.6476ZM27.6226 33.5646L35.2386 24.2406L33.6897 22.9754L26.0737 32.2994L27.6226 33.5646ZM33.562 24.0395L33.87 24.6835L35.6743 23.8206L35.3663 23.1766L33.562 24.0395ZM33.9969 23.6203C33.1709 24.6341 32.1685 25.8894 30.9905 27.3853L32.5618 28.6227C33.7358 27.1319 34.7307 25.8859 35.5474 24.8837L33.9969 23.6203ZM30.9905 27.3853C29.8174 28.8749 28.4199 30.6266 26.7974 32.6407L28.3549 33.8953C29.9805 31.8774 31.3829 30.1197 32.5618 28.6227L30.9905 27.3853ZM27.0942 34.1442C27.4594 34.345 27.9477 34.6214 28.5612 34.9746L29.5591 33.2414C28.9407 32.8853 28.4396 32.6016 28.0581 32.3918L27.0942 34.1442ZM28.5923 34.9918C29.2142 35.321 29.9788 35.7447 30.888 36.2643L31.8803 34.5278C30.9602 34.002 30.1755 33.567 29.528 33.2242L28.5923 34.9918ZM31.8472 36.2824C33.1294 35.6125 34.4906 34.8125 35.93 33.8845L34.8463 32.2035C33.4484 33.1048 32.1402 33.8728 30.9211 34.5097L31.8472 36.2824ZM35.925 33.8877C37.3836 32.9595 38.9508 31.883 40.6259 30.6596L39.4464 29.0445C37.7989 30.2477 36.2674 31.2992 34.8513 32.2003L35.925 33.8877ZM40.6259 30.6596C42.0931 29.5874 43.4594 28.5416 44.7237 27.5226L43.4686 25.9654C42.2316 26.9624 40.8912 27.9887 39.4464 29.0445L40.6259 30.6596ZM44.7306 27.5169C45.994 26.4798 47.1837 25.4508 48.2993 24.4297L46.949 22.9543C45.8619 23.9493 44.6996 24.9549 43.4617 25.9711L44.7306 27.5169ZM48.3313 24.3991C48.4709 24.2595 48.7334 24.0059 49.1258 23.6321L47.7465 22.1839C47.3549 22.5568 47.0761 22.8259 46.917 22.9849L48.3313 24.3991ZM49.1433 23.6151C49.5449 23.2134 50.0656 22.6737 50.7032 21.9986L49.2491 20.6254C48.6173 21.2944 48.1114 21.8186 47.729 22.2009L49.1433 23.6151ZM50.6628 22.039C50.9846 21.7351 51.2368 21.5201 51.425 21.3809C51.5188 21.3114 51.5842 21.2702 51.6244 21.248C51.6717 21.2219 51.6535 21.2393 51.5857 21.2538L51.1666 19.2982C50.8099 19.3746 50.4797 19.5923 50.2353 19.7732C49.9569 19.9792 49.6397 20.2542 49.2895 20.585L50.6628 22.039ZM51.3762 21.276C51.3166 21.276 51.2982 21.2638 51.3346 21.2765C51.3687 21.2884 51.4307 21.3149 51.524 21.3683L52.5163 19.6318C52.2065 19.4548 51.8071 19.276 51.3762 19.276V21.276ZM51.4467 21.3192C51.4872 21.3476 51.478 21.3484 51.4508 21.3138C51.4213 21.2763 51.3594 21.1816 51.3382 21.0334L53.3181 20.7506C53.2399 20.203 52.8521 19.8617 52.5936 19.6808L51.4467 21.3192ZM51.3282 20.892C51.3282 20.7561 51.3772 20.8101 51.134 21.1493C50.9263 21.4389 50.589 21.8235 50.0983 22.3097C49.1209 23.2781 47.6294 24.5575 45.6047 26.1549L46.8436 27.7251C48.8882 26.1118 50.4487 24.7779 51.506 23.7304C52.0327 23.2085 52.4584 22.7344 52.7593 22.3148C53.0248 21.9446 53.3282 21.4386 53.3282 20.892H51.3282ZM45.613 26.1485C41.2319 29.5314 36.6584 32.497 31.8925 35.0462L32.8358 36.8098C37.7019 34.207 42.3684 31.1807 46.8353 27.7316L45.613 26.1485ZM25.8908 33.7741C25.4968 34.2807 25.0564 34.8522 24.5698 35.4886L26.1585 36.7035C26.6426 36.0705 27.0795 35.5033 27.4695 35.0019L25.8908 33.7741ZM24.5787 35.4771C24.0981 36.087 23.561 36.7538 22.9671 37.4777L24.5132 38.7463C25.1139 38.0142 25.6595 37.337 26.1496 36.7149L24.5787 35.4771ZM23.8838 39.1016C25.168 38.9152 27.2921 38.2294 30.1771 37.1126L29.4552 35.2474C26.5535 36.3707 24.627 36.9728 23.5965 37.1224L23.8838 39.1016ZM30.3123 35.3118L27.1763 33.5198L26.184 35.2563L29.32 37.0483L30.3123 35.3118ZM26.4207 33.2811C23.3628 31.8964 20.5044 31.176 17.8602 31.176V33.176C20.1439 33.176 22.7175 33.7996 25.5956 35.103L26.4207 33.2811ZM17.8602 31.176C16.2661 31.176 14.8225 31.5401 13.5635 32.2998L14.5968 34.0122C15.5032 33.4653 16.5795 33.176 17.8602 33.176V31.176ZM13.5543 32.3054C12.3311 33.0616 11.5402 34.1265 11.5402 35.508H13.5402C13.5402 35.0228 13.7759 34.5198 14.606 34.0066L13.5543 32.3054ZM11.5402 35.508C11.5402 36.8512 12.3511 37.889 13.5433 38.6477L14.617 36.9603C13.7558 36.4123 13.5402 35.9195 13.5402 35.508H11.5402ZM13.5657 38.6615C14.7888 39.3954 16.2777 39.728 17.9722 39.728V37.728C16.5306 37.728 15.4248 37.4446 14.5946 36.9465L13.5657 38.6615ZM17.9722 39.728C18.2571 39.728 18.8074 39.6969 19.5834 39.6415L19.4409 37.6466C18.6489 37.7031 18.1726 37.728 17.9722 37.728V39.728ZM19.5834 39.6415C20.3787 39.5847 21.4702 39.4905 22.8543 39.3596L22.666 37.3685C21.2875 37.4989 20.2136 37.5914 19.4409 37.6466L19.5834 39.6415ZM23.5492 38.9783L26.7972 34.8063L25.2191 33.5777L21.9711 37.7497L23.5492 38.9783Z" fill="#CF9455"/>
</g>
</svg>
